<?xml version="1.0" standalone="no"?>
<!DOCTYPE svg PUBLIC "-//W3C//DTD SVG 20010904//EN"
 "http://www.w3.org/TR/2001/REC-SVG-20010904/DTD/svg10.dtd">
<svg version="1.0" xmlns="http://www.w3.org/2000/svg"
 width="623.000000pt" height="90.000000pt" viewBox="0 0 623.000000 90.000000"
 preserveAspectRatio="xMidYMid meet">

<g transform="translate(0.000000,90.000000) scale(0.100000,-0.100000)"
fill="#000000" stroke="none">
<path d="M554 868 c-34 -16 -50 -53 -36 -82 44 -97 234 -50 196 49 -15 38
-110 58 -160 33z"/>
<path d="M3490 730 c0 -121 -3 -150 -14 -150 -7 0 -19 6 -25 14 -6 8 -35 24
-64 37 -46 21 -67 24 -182 24 -152 -1 -212 -19 -288 -85 -64 -57 -90 -115 -89
-201 1 -178 146 -289 377 -289 102 0 179 19 234 56 20 13 39 24 43 24 5 0 8
-18 8 -40 l0 -40 95 0 95 0 0 400 0 400 -95 0 -95 0 0 -150z m-103 -216 c88
-43 122 -124 85 -207 -77 -173 -420 -144 -447 38 -24 156 187 254 362 169z"/>
<path d="M70 470 l0 -391 98 3 97 3 0 385 0 385 -97 3 -98 3 0 -391z"/>
<path d="M1960 470 l0 -390 100 0 100 0 0 390 0 390 -100 0 -100 0 0 -390z"/>
<path d="M4134 646 c-113 -26 -210 -94 -245 -171 -26 -55 -25 -163 0 -213 25
-47 84 -104 138 -131 141 -70 395 -67 540 7 23 12 44 26 47 31 5 8 -44 53 -80
74 -7 4 -38 -5 -70 -20 -52 -24 -71 -28 -159 -28 -84 0 -107 3 -141 22 -40 22
-94 75 -94 94 0 5 124 9 301 9 l302 0 -6 69 c-10 119 -70 198 -183 241 -75 29
-258 37 -350 16z m273 -118 c24 -11 51 -34 64 -54 38 -62 34 -64 -194 -64
-112 0 -207 3 -210 6 -15 16 40 87 88 112 66 35 178 35 252 0z"/>
<path d="M4700 649 c0 -6 69 -137 153 -290 l152 -279 100 0 100 0 153 283 c83
155 152 286 152 290 0 4 -43 7 -95 7 l-95 0 -65 -137 c-37 -76 -82 -173 -102
-215 -20 -43 -39 -78 -43 -78 -4 0 -54 97 -111 215 l-104 215 -97 0 c-66 0
-98 -4 -98 -11z"/>
<path d="M1355 644 c-74 -16 -113 -32 -152 -61 -24 -18 -45 -33 -48 -33 -3 0
-5 20 -5 45 l0 45 -95 0 -95 0 0 -280 0 -280 95 0 95 0 0 150 c0 168 8 199 59
243 86 72 273 59 315 -22 13 -24 16 -65 16 -201 l0 -170 101 0 101 0 -4 202
c-3 193 -4 205 -27 245 -30 52 -83 89 -158 108 -53 14 -152 18 -198 9z"/>
<path d="M520 360 l0 -280 95 0 95 0 0 280 0 280 -95 0 -95 0 0 -280z"/>
</g>
</svg>
