<?xml version="1.0" standalone="no"?>
<!DOCTYPE svg PUBLIC "-//W3C//DTD SVG 20010904//EN"
 "http://www.w3.org/TR/2001/REC-SVG-20010904/DTD/svg10.dtd">
<svg version="1.0" xmlns="http://www.w3.org/2000/svg"
 width="500.000000pt" height="500.000000pt" viewBox="0 0 500.000000 500.000000"
 preserveAspectRatio="xMidYMid meet">

<g transform="translate(0.000000,500.000000) scale(0.100000,-0.100000)"
fill="#000000" stroke="none">
<path d="M932 2864 c-43 -30 -15 -74 47 -74 42 0 61 14 61 47 0 40 -65 57
-108 27z"/>
<path d="M2830 2780 c0 -55 -3 -100 -6 -100 -3 0 -17 9 -31 19 -33 27 -125 45
-187 37 -138 -18 -218 -102 -201 -213 9 -61 70 -124 140 -143 96 -27 171 -17
278 38 4 2 7 -8 7 -22 0 -25 2 -26 60 -26 l60 0 0 255 0 255 -60 0 -60 0 0
-100z m-61 -135 c17 -8 37 -29 46 -45 44 -85 -24 -163 -141 -163 -65 0 -113
26 -137 75 -16 33 -16 40 -4 70 27 63 78 90 159 83 26 -2 61 -11 77 -20z"/>
<path d="M630 2620 l0 -250 60 0 60 0 0 250 0 250 -60 0 -60 0 0 -250z"/>
<path d="M1850 2620 l0 -250 60 0 60 0 0 250 0 250 -60 0 -60 0 0 -250z"/>
<path d="M3253 2730 c-57 -12 -117 -44 -142 -76 -79 -101 -28 -231 106 -270
80 -23 233 -16 291 14 23 12 42 26 42 30 0 4 -12 15 -28 24 -25 15 -31 15 -91
-5 -56 -18 -70 -19 -119 -9 -51 11 -112 51 -112 74 0 4 88 8 195 8 l195 0 0
28 c-1 37 -24 99 -47 124 -44 50 -190 79 -290 58z m178 -83 c19 -12 35 -33 37
-45 3 -22 2 -22 -132 -22 -149 0 -159 5 -108 52 35 33 45 36 113 37 43 1 64
-4 90 -22z"/>
<path d="M3668 2730 l-58 -5 97 -177 96 -178 66 0 66 0 95 176 c52 97 97 181
98 186 2 5 -24 8 -58 7 l-61 -2 -66 -139 c-36 -76 -69 -138 -72 -138 -3 0 -33
57 -66 126 -32 69 -64 131 -70 137 -6 8 -30 10 -67 7z"/>
<path d="M920 2550 l0 -180 60 0 60 0 0 180 0 180 -60 0 -60 0 0 -180z"/>
<path d="M1200 2550 l0 -180 60 0 60 0 0 98 c0 57 5 107 13 122 26 53 134 78
196 45 39 -20 51 -61 51 -171 l0 -94 61 0 61 0 -4 133 c-4 148 -13 173 -74
202 -81 38 -216 27 -275 -22 l-29 -25 0 36 0 36 -60 0 -60 0 0 -180z"/>
</g>
</svg>
