<?xml version="1.0" standalone="no"?>
<!DOCTYPE svg PUBLIC "-//W3C//DTD SVG 20010904//EN"
 "http://www.w3.org/TR/2001/REC-SVG-20010904/DTD/svg10.dtd">
<svg version="1.0" xmlns="http://www.w3.org/2000/svg"
 width="494.000000pt" height="116.000000pt" viewBox="0 0 494.000000 116.000000"
 preserveAspectRatio="xMidYMid meet">

<g transform="translate(0.000000,116.000000) scale(0.100000,-0.100000)"
fill="#000000" stroke="none">
<path d="M530 942 c-18 -19 -30 -41 -30 -57 0 -16 12 -38 30 -57 26 -25 36
-29 63 -24 41 8 67 39 67 81 0 42 -26 73 -67 81 -27 5 -37 1 -63 -24z"/>
<path d="M2780 793 l0 -167 -32 31 c-56 52 -95 67 -178 67 -84 0 -153 -25
-203 -72 -115 -109 -119 -356 -8 -475 95 -103 289 -114 386 -22 l35 32 0 -43
0 -44 75 0 75 0 0 430 0 430 -75 0 -75 0 0 -167z m-104 -212 c65 -30 98 -81
102 -160 7 -127 -65 -205 -183 -199 -104 6 -165 75 -165 187 0 83 39 144 110
175 47 20 87 19 136 -3z"/>
<path d="M170 520 l0 -430 75 0 75 0 -2 428 -3 427 -72 3 -73 3 0 -431z"/>
<path d="M1620 520 l0 -430 75 0 75 0 -2 428 -3 427 -72 3 -73 3 0 -431z"/>
<path d="M3301 715 c-146 -41 -226 -152 -224 -310 2 -193 127 -311 328 -309
65 0 92 6 142 28 34 16 71 39 83 51 l22 24 -20 29 c-40 55 -45 56 -104 23 -45
-25 -66 -31 -117 -31 -36 0 -74 6 -91 15 -32 16 -74 67 -85 103 l-6 22 232 0
232 0 -6 83 c-6 98 -30 158 -83 209 -69 66 -198 92 -303 63z m169 -123 c40
-20 80 -74 80 -108 l0 -24 -160 0 c-175 0 -176 0 -146 58 43 82 144 116 226
74z"/>
<path d="M3710 713 c0 -4 53 -143 117 -310 l117 -304 81 3 80 3 117 305 116
305 -65 3 c-36 2 -72 1 -78 -2 -7 -2 -45 -103 -85 -223 -40 -120 -76 -222 -80
-226 -4 -5 -43 96 -86 222 l-79 231 -77 0 c-43 0 -78 -3 -78 -7z"/>
<path d="M510 400 l0 -310 75 0 75 0 -2 308 -3 307 -72 3 -73 3 0 -311z"/>
<path d="M840 400 l0 -310 74 0 74 0 4 183 c3 202 9 225 70 269 26 18 46 23
95 23 57 0 65 -3 95 -33 l33 -32 3 -205 3 -205 75 0 75 0 -3 238 -3 237 -27
47 c-22 36 -41 53 -83 74 -49 23 -64 26 -128 22 -84 -6 -143 -32 -181 -80
l-26 -33 0 58 0 57 -75 0 -75 0 0 -310z"/>
</g>
</svg>
